<svg width="24" height="24" viewBox="0 0 24 24" fill="none" xmlns="http://www.w3.org/2000/svg">
<g clip-path="url(#clip0_18_44)">
<rect width="24" height="24" rx="12" fill="white"/>
<g clip-path="url(#clip1_18_44)">
<rect width="24" height="24" rx="12" fill="white"/>
<path d="M16.1752 11L11.2752 6.09995C11.0752 5.89995 10.9792 5.66662 10.9872 5.39995C10.9952 5.13328 11.0995 4.89995 11.3002 4.69995C11.5002 4.51662 11.7335 4.42062 12.0002 4.41195C12.2668 4.40329 12.5002 4.49929 12.7002 4.69995L19.3002 11.3C19.4002 11.4 19.4712 11.5083 19.5132 11.625C19.5552 11.7416 19.5755 11.8666 19.5742 12C19.5728 12.1333 19.5518 12.2583 19.5112 12.375C19.4705 12.4916 19.3998 12.6 19.2992 12.7L12.6992 19.3C12.5158 19.4833 12.2865 19.575 12.0112 19.575C11.7358 19.575 11.4985 19.4833 11.2992 19.3C11.0992 19.1 10.9992 18.8623 10.9992 18.587C10.9992 18.3116 11.0992 18.0743 11.2992 17.875L16.1752 13L5.00016 13C4.71682 13 4.47916 12.904 4.28716 12.712C4.09516 12.52 3.99949 12.2826 4.00016 12C4.00082 11.7173 4.09682 11.4796 4.28816 11.287C4.47949 11.0943 4.71682 10.9986 5.00016 11L16.1752 11Z" fill="black"/>
</g>
</g>
<defs>
<clipPath id="clip0_18_44">
<rect width="24" height="24" rx="12" fill="white"/>
</clipPath>
<clipPath id="clip1_18_44">
<rect width="24" height="24" rx="12" fill="white"/>
</clipPath>
</defs>
</svg>
